<svg width="75" height="75" viewBox="0 0 75 75" fill="none" xmlns="http://www.w3.org/2000/svg">
<path d="M24 21.5L46 0H74.5L39 35.5L0 74.5V44L24 21.5Z" fill="#EA361B"/>
<path d="M12.1241 52.7896L6.03937 46.5333L8.15332 44.4773C8.64413 43.9999 9.1315 43.6983 9.61541 43.5725C10.0994 43.4426 10.5623 43.454 11.0042 43.6069C11.446 43.7597 11.8462 44.0204 12.2047 44.389C12.5632 44.7576 12.8137 45.1659 12.9561 45.6139C13.1006 46.0599 13.1042 46.524 12.9669 47.0063C12.8276 47.4865 12.5146 47.9633 12.0279 48.4367L10.5127 49.9104L9.85906 49.2383L11.3498 47.7884C11.6859 47.4616 11.8993 47.1411 11.99 46.827C12.0808 46.5128 12.0759 46.2124 11.9754 45.9257C11.875 45.635 11.703 45.3644 11.4594 45.1139C11.2157 44.8634 10.951 44.685 10.6652 44.5785C10.3814 44.4701 10.0822 44.4599 9.76759 44.548C9.45098 44.634 9.12262 44.8424 8.78251 45.1731L7.4506 46.4685L12.8817 52.0528L12.1241 52.7896ZM17.4869 47.5739L12.9233 42.8817L13.6198 42.2043L14.3091 42.913L14.358 42.8655C14.2177 42.5501 14.1893 42.2112 14.2727 41.8487C14.3561 41.4862 14.5383 41.1683 14.8193 40.895C14.8723 40.8435 14.9395 40.7801 15.0209 40.7049C15.1023 40.6297 15.1653 40.5743 15.21 40.5388L15.9231 41.272C15.8927 41.2896 15.8278 41.3349 15.7283 41.4079C15.6289 41.4768 15.5314 41.5578 15.4356 41.6509C15.2076 41.8728 15.0504 42.1187 14.9643 42.3887C14.8782 42.6547 14.8645 42.9217 14.923 43.1897C14.9817 43.4537 15.114 43.6916 15.3199 43.9034L18.2078 46.8728L17.4869 47.5739ZM22.5461 42.8437C22.1225 43.2557 21.6527 43.5164 21.1369 43.6257C20.6231 43.7331 20.1003 43.6927 19.5685 43.5045C19.0388 43.3143 18.5382 42.9768 18.0668 42.4921C17.5914 42.0034 17.2651 41.4905 17.0877 40.9537C16.9124 40.4148 16.8855 39.8901 17.0072 39.3795C17.1308 38.8669 17.4044 38.4046 17.828 37.9926C18.2516 37.5806 18.7203 37.321 19.2341 37.2136C19.75 37.1042 20.2737 37.1457 20.8055 37.3379C21.3392 37.5281 21.8438 37.8677 22.3192 38.3564C22.7906 38.8411 23.113 39.3519 23.2863 39.8887C23.4617 40.4235 23.4875 40.9472 23.3639 41.4598C23.2423 41.9704 22.9697 42.4317 22.5461 42.8437ZM21.9162 42.1961C22.238 41.8831 22.4225 41.5432 22.4698 41.1762C22.5171 40.8092 22.4599 40.4428 22.2983 40.0769C22.1366 39.711 21.9033 39.3712 21.5982 39.0576C21.2932 38.744 20.9591 38.5002 20.5958 38.3264C20.2326 38.1526 19.8659 38.0832 19.4958 38.1183C19.1256 38.1533 18.7797 38.3273 18.4579 38.6403C18.1361 38.9532 17.9526 39.2942 17.9073 39.6632C17.862 40.0322 17.9211 40.4007 18.0848 40.7686C18.2484 41.1366 18.4827 41.4773 18.7878 41.791C19.0928 42.1046 19.4259 42.3473 19.7872 42.5191C20.1484 42.6908 20.5131 42.7582 20.8813 42.7211C21.2494 42.6841 21.5944 42.509 21.9162 42.1961ZM25.6777 39.6078L21.1141 34.9156L21.8107 34.2382L22.5237 34.9713L22.5848 34.9119C22.4389 34.5663 22.4076 34.2183 22.4908 33.8679C22.5721 33.5155 22.7654 33.1907 23.0709 32.8936C23.3805 32.5925 23.7064 32.4122 24.0488 32.3527C24.3912 32.2891 24.7423 32.3262 25.102 32.4638L25.1509 32.4162C25.0353 32.057 25.0284 31.6893 25.1301 31.313C25.2297 30.9347 25.4476 30.5821 25.7836 30.2553C26.2032 29.8473 26.6741 29.6449 27.1964 29.6481C27.7167 29.6493 28.2452 29.9259 28.782 30.4778L31.8363 33.6182L31.1153 34.3193L28.0611 31.179C27.7244 30.8327 27.389 30.6774 27.055 30.7129C26.721 30.7485 26.4257 30.891 26.1691 31.1406C25.8392 31.4615 25.6806 31.8098 25.6935 32.1857C25.7044 32.5595 25.8574 32.8982 26.1525 33.2016L29.1235 36.2565L28.3904 36.9695L25.2648 33.7558C25.0054 33.489 24.7099 33.3583 24.3783 33.3638C24.0447 33.3672 23.7415 33.5016 23.4686 33.767C23.2813 33.9492 23.1546 34.1695 23.0888 34.4277C23.0249 34.684 23.0293 34.9492 23.1018 35.2235C23.1744 35.4937 23.3226 35.7438 23.5464 35.974L26.3986 38.9066L25.6777 39.6078ZM35.1557 30.58C34.7321 30.992 34.2624 31.2526 33.7466 31.362C33.2328 31.4694 32.71 31.4289 32.1782 31.2407C31.6485 31.0505 31.1479 30.7131 30.6765 30.2284C30.2011 29.7396 29.8747 29.2268 29.6974 28.6899C29.5221 28.1511 29.4952 27.6264 29.6168 27.1158C29.7405 26.6032 30.0141 26.1409 30.4377 25.7289C30.8613 25.3169 31.33 25.0572 31.8438 24.9499C32.3596 24.8405 32.8834 24.8819 33.4151 25.0742C33.9489 25.2644 34.4535 25.6039 34.9288 26.0927C35.4002 26.5774 35.7226 27.0882 35.896 27.625C36.0713 28.1598 36.0972 28.6835 35.9735 29.1961C35.8519 29.7067 35.5793 30.168 35.1557 30.58ZM34.5259 29.9324C34.8476 29.6194 35.0322 29.2794 35.0795 28.9124C35.1268 28.5455 35.0696 28.179 34.9079 27.8131C34.7463 27.4473 34.5129 27.1075 34.2079 26.7939C33.9029 26.4802 33.5687 26.2365 33.2055 26.0627C32.8423 25.8889 32.4756 25.8195 32.1054 25.8545C31.7353 25.8896 31.3893 26.0636 31.0676 26.3765C30.7458 26.6895 30.5622 27.0305 30.5169 27.3995C30.4716 27.7685 30.5308 28.137 30.6944 28.5049C30.8581 28.8728 31.0924 29.2136 31.3974 29.5272C31.7024 29.8409 32.0356 30.0836 32.3968 30.2553C32.7581 30.4271 33.1228 30.4945 33.4909 30.4574C33.8591 30.4203 34.2041 30.2453 34.5259 29.9324ZM40.2886 25.5879C39.8487 26.0157 39.3689 26.2803 38.8492 26.3815C38.3294 26.4828 37.8068 26.4343 37.2812 26.2362C36.7555 26.038 36.2649 25.7047 35.8094 25.2363C35.3459 24.7597 35.0245 24.254 34.8451 23.7191C34.6657 23.1802 34.6339 22.6544 34.7495 22.1417C34.8651 21.625 35.1348 21.1607 35.5584 20.7487C35.8883 20.4278 36.2451 20.1997 36.6287 20.0644C37.0123 19.9291 37.3955 19.8892 37.7785 19.9448C38.1614 20.0004 38.5159 20.155 38.8418 20.4086L38.1209 21.1098C37.8579 20.9494 37.5515 20.8789 37.2017 20.8981C36.8519 20.9133 36.5182 21.0754 36.2005 21.3844C35.9194 21.6578 35.7443 21.9707 35.6751 22.3234C35.606 22.672 35.6411 23.0361 35.7805 23.4157C35.9199 23.7913 36.1619 24.1563 36.5066 24.5107C36.8591 24.8732 37.2232 25.1334 37.5987 25.2913C37.9762 25.4472 38.3421 25.4975 38.6965 25.4422C39.0529 25.3849 39.3736 25.2176 39.6588 24.9403C39.8461 24.758 39.9845 24.5601 40.0739 24.3463C40.1632 24.1326 40.2014 23.9132 40.1885 23.688C40.1755 23.4628 40.1083 23.2429 39.9867 23.0282L40.7077 22.3271C40.9363 22.6436 41.0781 22.9912 41.1331 23.3696C41.1882 23.7441 41.1478 24.1242 41.0118 24.5101C40.8759 24.8919 40.6348 25.2512 40.2886 25.5879ZM39.8276 25.7985L40.4264 25.2161L40.6152 25.5081C40.7978 25.378 41.0078 25.3026 41.2452 25.2818C41.4845 25.263 41.72 25.3727 41.9518 25.611C42.2073 25.8737 42.3063 26.1935 42.2488 26.5704C42.1954 26.9474 41.9579 27.3409 41.5363 27.7509L41.0484 27.2981C41.2378 27.1139 41.3649 26.9308 41.4297 26.7489C41.4985 26.567 41.4646 26.4058 41.3279 26.2653C41.1912 26.1248 41.0462 26.0796 40.8928 26.1297C40.7395 26.1798 40.5378 26.3086 40.2878 26.516L39.8276 25.7985ZM44.5804 21.4377C44.283 21.7269 43.9587 21.9333 43.6074 22.057C43.2541 22.1786 42.9022 22.2019 42.5517 22.1267C42.1992 22.0495 41.8744 21.8581 41.5773 21.5526C41.3158 21.2838 41.1568 21.0144 41.1003 20.7444C41.0418 20.4724 41.0546 20.2023 41.1387 19.9343C41.2228 19.6662 41.349 19.4048 41.5173 19.15C41.6856 18.8912 41.8649 18.6415 42.0551 18.4011C42.3045 18.0871 42.5089 17.8348 42.6683 17.6442C42.8277 17.4495 42.9254 17.2891 42.9613 17.1631C42.9992 17.035 42.9617 16.913 42.8488 16.7969L42.8251 16.7724C42.5319 16.471 42.2217 16.317 41.8943 16.3105C41.5689 16.3019 41.2403 16.4591 40.9083 16.7819C40.5641 17.1167 40.3676 17.4545 40.3187 17.7953C40.2697 18.1362 40.2887 18.4308 40.3757 18.6791L39.4537 19.1002C39.2986 18.6962 39.2456 18.3158 39.2948 17.9589C39.344 17.5979 39.4591 17.2681 39.64 16.9692C39.821 16.6664 40.0297 16.4001 40.2659 16.1703C40.4166 16.0237 40.6076 15.8737 40.8387 15.7202C41.0699 15.5627 41.3307 15.4498 41.6209 15.3815C41.9132 15.3112 42.2284 15.3277 42.5665 15.4308C42.9046 15.534 43.2548 15.7719 43.6173 16.1446L46.624 19.2361L45.9031 19.9373L45.2851 19.3018L45.2484 19.3375C45.2986 19.4869 45.3231 19.675 45.3219 19.902C45.3208 20.1291 45.2651 20.3754 45.155 20.6411C45.0448 20.9067 44.8533 21.1723 44.5804 21.4377ZM44.0605 20.6831C44.3456 20.4058 44.5314 20.1161 44.618 19.8139C44.7066 19.5098 44.7147 19.2206 44.6421 18.9463C44.5716 18.6701 44.4413 18.4343 44.2512 18.2388L43.6094 17.5789C43.6145 17.6453 43.58 17.7442 43.5058 17.8758C43.4317 18.0034 43.3384 18.1437 43.2258 18.2968C43.1132 18.4459 43.0017 18.59 42.8913 18.7291C42.7809 18.8642 42.692 18.9745 42.6245 19.0599C42.4609 19.2666 42.3244 19.4766 42.2149 19.6901C42.1055 19.8995 42.0534 20.1067 42.0586 20.3117C42.0639 20.5127 42.1556 20.7048 42.3339 20.8881C42.5775 21.1386 42.8544 21.2379 43.1645 21.1859C43.4747 21.13 43.7733 20.9624 44.0605 20.6831ZM38.8866 16.5368L38.3008 17.0591C37.9977 16.7475 37.8387 16.4067 37.8238 16.0369C37.8089 15.663 37.9328 15.3483 38.1955 15.0928C38.3116 14.9799 38.4343 14.9002 38.5635 14.8538C38.6907 14.8054 38.8198 14.767 38.9508 14.7387C39.0818 14.7103 39.2099 14.675 39.335 14.6325C39.4602 14.586 39.5778 14.5093 39.6878 14.4024C39.8039 14.2895 39.8581 14.1496 39.8503 13.9827C39.8427 13.8118 39.7764 13.6623 39.6517 13.534L40.2491 13.048C40.5581 13.3657 40.7141 13.7054 40.7171 14.0671C40.7221 14.4268 40.5933 14.7344 40.3305 14.9899C40.19 15.1266 40.0551 15.2201 39.9258 15.2705C39.7946 15.3189 39.6686 15.3523 39.5478 15.3708C39.427 15.3892 39.308 15.4177 39.191 15.4562C39.0719 15.4927 38.9544 15.5674 38.8383 15.6803C38.7222 15.7932 38.67 15.9331 38.6818 16.1C38.6936 16.2629 38.7619 16.4085 38.8866 16.5368ZM49.9412 16.2001C49.5176 16.6121 49.0479 16.8728 48.532 16.9821C48.0182 17.0895 47.4955 17.0491 46.9637 16.8609C46.4339 16.6707 45.9334 16.3332 45.4619 15.8485C44.9866 15.3598 44.6602 14.8469 44.4829 14.3101C44.3075 13.7712 44.2807 13.2465 44.4023 12.7359C44.5259 12.2233 44.7996 11.761 45.2232 11.349C45.6468 10.937 46.1155 10.6774 46.6293 10.57C47.1451 10.4606 47.6689 10.5021 48.2006 10.6943C48.7344 10.8846 49.2389 11.2241 49.7143 11.7128C50.1857 12.1975 50.5081 12.7083 50.6814 13.2451C50.8568 13.7799 50.8827 14.3036 50.759 14.8162C50.6374 15.3268 50.3648 15.7881 49.9412 16.2001ZM49.3113 15.5525C49.6331 15.2396 49.8176 14.8996 49.8649 14.5326C49.9122 14.1656 49.855 13.7992 49.6934 13.4333C49.5317 13.0674 49.2984 12.7276 48.9934 12.414C48.6883 12.1004 48.3542 11.8567 47.991 11.6828C47.6278 11.509 47.2611 11.4396 46.8909 11.4747C46.5208 11.5097 46.1748 11.6837 45.853 11.9967C45.5313 12.3096 45.3477 12.6506 45.3024 13.0196C45.2571 13.3887 45.3162 13.7571 45.4799 14.125C45.6435 14.493 45.8779 14.8337 46.1829 15.1474C46.4879 15.461 46.8211 15.7037 47.1823 15.8755C47.5435 16.0472 47.9082 16.1146 48.2764 16.0775C48.6446 16.0405 48.9896 15.8655 49.3113 15.5525Z" fill="white"/>
</svg>
